<?xml version="1.0" ?><!-- Uploaded to: SVG Repo, www.svgrepo.com, Generator: SVG Repo Mixer Tools -->
<svg width="800px" height="800px" viewBox="0 0 50 50" data-name="Layer 1" id="Layer_1" xmlns="http://www.w3.org/2000/svg"><defs><style>.cls-1{fill:#231f20;}.cls-2{fill:#ffffff;}.cls-3{fill:#ffba50;}.cls-4{fill:#7cc05b;}</style></defs><title/><path class="cls-1" d="M36.558,27.615a8.887,8.887,0,0,0-3.338.652V7a2.5,2.5,0,0,0-2.5-2.5H7A2.5,2.5,0,0,0,4.5,7V43A2.5,2.5,0,0,0,7,45.5H30.72a2.5,2.5,0,0,0,1.916-.918,8.938,8.938,0,1,0,3.922-16.967Z"/><path class="cls-2" d="M30.72,44.5H7A1.5,1.5,0,0,1,5.5,43V7A1.5,1.5,0,0,1,7,5.5H30.72A1.5,1.5,0,0,1,32.22,7V28.743a8.969,8.969,0,0,0-1.51,1.064V8.344a1.5,1.5,0,0,0-1.5-1.5H8.51a1.5,1.5,0,0,0-1.5,1.5V39.363a1.5,1.5,0,0,0,1.5,1.5H28.724a9,9,0,0,0,3.023,3.221A1.5,1.5,0,0,1,30.72,44.5Z"/><path class="cls-3" d="M29.727,30.8a8.884,8.884,0,0,0-1.472,9.065H8.51a.5.5,0,0,1-.5-.5V8.344a.5.5,0,0,1,.5-.5h20.7a.5.5,0,0,1,.5.5V30.713A.492.492,0,0,0,29.727,30.8Z"/><path class="cls-1" d="M13.1,10.589a3.577,3.577,0,1,0,3.576,3.577A3.582,3.582,0,0,0,13.1,10.589Z"/><path class="cls-2" d="M13.1,16.742a2.577,2.577,0,1,1,2.576-2.576A2.58,2.58,0,0,1,13.1,16.742Z"/><circle class="cls-1" cx="13.099" cy="23.854" r="3.576"/><circle class="cls-2" cx="13.099" cy="23.854" r="2.576"/><path class="cls-1" d="M13.1,29.965a3.577,3.577,0,1,0,3.576,3.577A3.581,3.581,0,0,0,13.1,29.965Z"/><path class="cls-2" d="M13.1,36.118a2.577,2.577,0,1,1,2.576-2.576A2.58,2.58,0,0,1,13.1,36.118Z"/><path class="cls-1" d="M20.2,41.946H17.522a.5.5,0,0,0,0,1H20.2a.5.5,0,1,0,0-1Z"/><path class="cls-4" d="M36.558,44.5A7.943,7.943,0,1,1,44.5,36.557,7.953,7.953,0,0,1,36.558,44.5Z"/><path class="cls-1" d="M27.7,13.666H18.525a.5.5,0,0,0,0,1H27.7a.5.5,0,0,0,0-1Z"/><path class="cls-1" d="M14.083,12.984l-1.149,1.149-.443-.443a.5.5,0,1,0-.707.707l.8.8a.5.5,0,0,0,.707,0l1.5-1.5a.5.5,0,0,0-.707-.707Z"/><path class="cls-1" d="M27.7,23.354H18.525a.5.5,0,0,0,0,1H27.7a.5.5,0,1,0,0-1Z"/><path class="cls-1" d="M14.083,22.672l-1.149,1.149-.443-.443a.5.5,0,1,0-.707.707l.8.8a.5.5,0,0,0,.707,0l1.5-1.5a.5.5,0,0,0-.707-.707Z"/><path class="cls-1" d="M25,33.042H18.525a.5.5,0,0,0,0,1H25a.5.5,0,0,0,0-1Z"/><path class="cls-1" d="M14.083,32.36l-1.149,1.149-.443-.443a.5.5,0,1,0-.707.707l.8.8a.5.5,0,0,0,.707,0l1.5-1.5a.5.5,0,1,0-.707-.707Z"/><path class="cls-1" d="M39.875,33.932,36.1,37.7,34.272,35.87a.5.5,0,0,0-.707.707l2.187,2.186a.5.5,0,0,0,.707,0l4.123-4.124a.5.5,0,0,0-.707-.707Z"/></svg>